<?xml version="1.0" encoding="utf-8"?>
<!-- Generator: Adobe Illustrator 23.0.2, SVG Export Plug-In . SVG Version: 6.00 Build 0)  -->
<svg version="1.1" id="JETS" xmlns="http://www.w3.org/2000/svg" xmlns:xlink="http://www.w3.org/1999/xlink" x="0px" y="0px"
	 viewBox="0 0 197.1 90" style="enable-background:new 0 0 197.1 90;" xml:space="preserve">
<style type="text/css">
	.st0{fill:#FFFFFF;}
	.st1{fill:#125740;}
</style>
<title>NFLSHOP_3C_TLP_new_york_jets</title>
<path class="st0" d="M125.5,43.6l-3-9.2l0.5,9.2h-3.2V28.3h3.7l3,9.2l-0.5-9.2h3.2v15.3H125.5L125.5,43.6z M130.5,43.6V28.3h8.3v3
	h-5v3.1h3.8v2.8h-3.8v3.3h5v3L130.5,43.6L130.5,43.6z M139.5,28.3h3.2l0.5,12l1.3-12h3.9l1.3,12l0.5-12h3.2l-1.2,15.3h-4.7l-1-11.7
	l-1,11.7h-4.7L139.5,28.3z M162.2,28.3h3.5L162.6,39l0.1,4.6h-3.4l0.1-4.6l-3.2-10.7h3.5l1.3,7.1L162.2,28.3z M175.4,39.5
	c0,2.7-1.2,4.4-4.7,4.4s-4.7-1.7-4.7-4.4v-7c0-2.7,1.2-4.4,4.7-4.4s4.7,1.7,4.7,4.4V39.5L175.4,39.5z M169.4,39c0,1.5,0.2,2,1.3,2
	s1.3-0.5,1.3-2v-6.1c0-1.5-0.2-2-1.3-2s-1.3,0.5-1.3,2V39z M179.9,43.6h-3.3V28.3h4.9c3.6,0,4.7,1.8,4.7,4.5v0.3
	c0,1.8-0.6,3.2-2,3.9l2.4,6.6h-3.9l-1.7-5.9h-1L179.9,43.6L179.9,43.6z M181.2,31.1H180V35h1.2c1.3,0,1.6-0.5,1.6-1.8
	C182.8,31.7,182.6,31.1,181.2,31.1z M187.2,43.6V28.3h3.4l-0.1,6.3l2.5-6.3h3.8l-3,6.2l3.2,9.1h-3.9l-1.8-5.7l-0.9,1.7l0.1,4H187.2z
	 M121.4,58.8V46.9h3.4v12.3c0,2.3-1.3,3.2-3.4,3.2c-0.8,0-1.7-0.1-2.4-0.5l0.7-2.8c0.3,0.2,0.6,0.3,1,0.3c0.3,0.1,0.7-0.1,0.7-0.4
	C121.4,59,121.4,58.9,121.4,58.8z M126,62.2V46.9h8.3v3h-5V53h3.8v2.9h-3.8v3.3h5v3H126L126,62.2z M137.6,49.8H135V47h8.5v2.8h-2.6
	v12.5h-3.3L137.6,49.8L137.6,49.8z M143.6,61.2l1.2-2.8c0.8,0.6,1.8,0.9,2.8,0.9c1.1,0,1.6-0.4,1.6-1.4c0-1.2-0.9-1.7-2-2.3
	c-1.9-1-3-1.9-3-4.5c0-2.7,1.4-4.4,4.8-4.4c1.3-0.1,2.5,0.3,3.5,1l-1.2,2.8c-0.7-0.4-1.4-0.6-2.2-0.6c-0.7-0.1-1.3,0.3-1.4,1
	c0,0.1,0,0.2,0,0.2c0,0.9,0.5,1.2,1.7,1.8c2.4,1.2,3.3,2.1,3.3,4.9c0,2.9-1.6,4.6-4.7,4.6C146.4,62.5,144.9,62.1,143.6,61.2z
	 M94.2,30.7c-4.5-4.5-10.7-8.3-18.2-11c-8.2-2.9-16.8-4.4-25.5-4.4c-12.3,0-25,3.3-34.8,9C5.7,30.1,0,37.7,0,45
	c0,4.7,2.3,9.5,6.8,13.9s10.9,8.4,18.5,11.2c8.1,3,16.7,4.5,25.3,4.5c8.7,0,17.3-1.5,25.5-4.4c7.4-2.7,13.7-6.5,18.2-11
	s6.9-9.5,6.9-14.3S98.7,35.2,94.2,30.7z"/>
<g>
	<path class="st1" d="M52.6,55.7c-0.2,0-0.4,0-0.6,0c0,0.1-0.1,0.1-0.1,0.2c0.1,1,0.1,2,0,3.1c0,0.1,0.1,0.1,0.1,0.2
		c0.2,0,0.4,0,0.6,0c0.1-0.1,0.1-0.1,0.2-0.2c0.1-1,0.1-2,0-3C52.7,55.8,52.7,55.8,52.6,55.7L52.6,55.7z"/>
	<path class="st1" d="M49,55.7c-0.2,0-0.4,0-0.6,0c-0.1,0.1-0.1,0.1-0.2,0.2c-0.1,1-0.1,2,0,3c0.1,0.1,0.1,0.1,0.2,0.2
		c0.2,0,0.4,0,0.6,0c0-0.1,0.1-0.1,0.1-0.2c-0.1-1-0.1-2,0-3.1C49.1,55.8,49.1,55.8,49,55.7L49,55.7z"/>
	<path class="st1" d="M50.8,55.7c-0.2,0-0.4,0-0.6,0c-0.1,0.1-0.1,0.1-0.2,0.2c0,1,0,2.1,0,3.1c0.1,0.1,0.1,0.1,0.2,0.2
		c0.2,0,0.4,0,0.6,0c0.1-0.1,0.1-0.1,0.2-0.2c0-1,0-2.1,0-3.1C50.9,55.8,50.9,55.8,50.8,55.7L50.8,55.7z"/>
	<path class="st1" d="M58.9,34.5c0.2,0,0.3-0.1,0.5-0.2c0.1-0.1,0.2-0.3,0.3-0.5l0.7-1.2c0.1-0.2,0.1-0.3,0.1-0.5
		c0-0.2-0.1-0.3-0.4-0.3c-0.2,0-0.3,0-0.4,0.1c-0.1,0.1-0.2,0.3-0.3,0.5l-0.7,1.2c-0.1,0.2-0.1,0.3-0.1,0.5
		C58.5,34.4,58.6,34.5,58.9,34.5L58.9,34.5z"/>
	<path class="st1" d="M86.3,44.1h-6.4c0.2-0.3,0.3-0.6,0.3-1c0-0.5-0.5-0.8-1.5-0.8c-1.2,0-1.8,0.5-1.8,1c0,0.5,0.5,0.6,3.3,1.3
		c2.8,0.7,3.8,1.3,3.8,2.8c0,1.2-0.5,2.5-1.6,3.6c-1.3,1.3-3.3,2.2-8.2,2.2c-5.8,0-7.5-1-7.5-3c0-0.6,0.1-1.2,0.5-1.9h6.5
		c-0.2,0.4-0.3,0.7-0.3,1.1c0,0.5,0.5,0.8,1.5,0.8c1.1,0,1.8-0.4,1.8-1.1c0-0.6-0.6-0.8-3.5-1.5c-2.7-0.7-3.5-1.2-3.5-2.7
		c0-1,0.5-2.3,1.6-3.3c1.4-1.5,3.4-2.2,8.2-2.2c5.3,0,7.3,0.9,7.3,2.9C86.7,43,86.6,43.5,86.3,44.1L86.3,44.1z M60,52.5
		c-0.7-0.5-1.4-0.9-2.2-1.4c-1.6-0.8-3.2-1.3-4.5-1.5l3.5-6.6h-4.4l1.8-3.4h16.7l-1.8,3.4h-4L60,52.5L60,52.5z M53.7,58.9
		c0,0.1,0.1,0.1,0.1,0.2c0.2,0,0.4,0,0.6,0c0.1-0.1,0.1-0.1,0.2-0.2c0.1-0.3,0.1-0.6,0.1-0.9c0.6,0,1.2,0,1.7,0
		c1.9-0.1,3.8-0.1,5.7-0.3l0.3,0.4v0v0c-0.4,1.5-2.2,3.2-5.1,4.7c-2.6,1.4-5.4,1.7-6.9,1.7c0,0,0,0,0,0c0,0,0,0,0,0c0,0,0,0,0,0l0,0
		c-1.5,0-4.3-0.4-6.9-1.7c-2.8-1.5-4.6-3.2-5-4.7l0.3-0.4c1.9,0.1,3.8,0.2,5.6,0.3c0.7,0,1.3,0,2,0c0,0.3,0.1,0.6,0.1,0.9
		c0.1,0.1,0.1,0.1,0.2,0.2c0.2,0,0.4,0,0.6,0c0-0.1,0.1-0.1,0.1-0.2c-0.2-1-0.2-2,0-3c0-0.1-0.1-0.1-0.1-0.2c-0.2,0-0.4,0-0.6,0
		c-0.1,0.1-0.1,0.1-0.2,0.2c-0.1,0.3-0.1,0.6-0.1,0.9c-0.7,0-1.3,0-2,0c-1.9,0-3.8,0.1-5.6,0.3l-0.3-0.4c0,0,0-0.1,0-0.1
		c0.4-1.5,2.2-3.2,5-4.7c2.6-1.4,5.5-1.7,6.9-1.7c0,0,0,0,0,0c0,0,0,0,0,0c0,0,0,0,0,0c1.5,0,4.3,0.4,6.9,1.7
		c2.8,1.5,4.6,3.3,5.1,4.7c0,0,0,0.1,0,0.1l-0.3,0.4c-1.9-0.1-3.8-0.2-5.7-0.3c-0.6,0-1.2,0-1.7,0c0-0.3-0.1-0.6-0.1-0.9
		c-0.1-0.1-0.1-0.1-0.2-0.2c-0.2,0-0.4,0-0.6,0c0,0.1-0.1,0.1-0.1,0.2C53.9,56.9,53.9,57.9,53.7,58.9L53.7,58.9z M38.4,58
		C38.4,58,38.4,58,38.4,58L38.4,58C38.4,58,38.4,58,38.4,58L38.4,58z M37.2,39.7h15.5L51,43H43l-0.9,1.6h8l-1.7,3.2h-8l-0.9,1.7h8.2
		l0,0.1c-1.3,0.2-3,0.7-4.6,1.6c-1,0.5-1.9,1.1-2.7,1.7H30.3L37.2,39.7L37.2,39.7z M21.6,53.2c-5.3,0-7.5-1.3-7.5-3.7
		c0-1.2,0.3-2.1,1-3.4l0.8-1.6h6.8l-1.7,3.3c-0.2,0.4-0.4,0.9-0.4,1.2c0,0.5,0.2,0.8,0.8,0.8c0.9,0,1.3-0.6,1.9-1.7l4.4-8.4h8
		l-3.6,7.1c-1,2-1.7,3.1-2.7,4.1C28,52.4,25.4,53.2,21.6,53.2L21.6,53.2z M24.1,30.7h2.6l0.5,2.1l1.1-2.1h2.3L28,35.6h-2.5L25,33.3
		l-1.2,2.3h-2.3L24.1,30.7L24.1,30.7z M37.4,30.7L36.7,32h-2.9l-0.3,0.6h2.7l-0.6,1.2h-2.7l-0.3,0.6h3l-0.6,1.2h-5.8l2.6-4.9H37.4
		L37.4,30.7z M40.7,30.7L40.1,33l1.6-2.3h2.7L43.8,33l1.7-2.3h2.6l-4.3,4.9H41l0.4-1.9l-1.6,1.9H37l0.9-4.9H40.7L40.7,30.7z
		 M50.1,30.7H53l0,1.5l1.5-1.5h2.7l-3.8,3.4l-0.8,1.5h-3l0.8-1.6L50.1,30.7L50.1,30.7z M62.6,31c0.5,0.2,0.7,0.6,0.7,1
		c0,0.3-0.1,0.7-0.3,1.2c-0.3,0.7-0.7,1.2-1,1.6c-0.6,0.6-1.7,0.9-3.2,0.9c-1.1,0-1.9-0.1-2.4-0.4c-0.5-0.2-0.7-0.6-0.7-1
		c0-0.3,0.1-0.7,0.3-1.2c0.3-0.7,0.7-1.2,1-1.6c0.6-0.6,1.7-0.9,3.2-0.9C61.3,30.6,62.1,30.7,62.6,31L62.6,31z M69.4,30.7
		c0.6,0,1,0.1,1.2,0.3c0.2,0.2,0.2,0.4,0.2,0.7c0,0.5-0.2,0.9-0.5,1.2c-0.2,0.2-0.4,0.3-0.6,0.4c-0.2,0.1-0.4,0.1-0.7,0.2
		c0.5,0.1,0.7,0.4,0.7,0.7c0,0.2-0.1,0.4-0.2,0.6l-0.4,0.7h-2.9l0.5-0.9c0.1-0.1,0.1-0.2,0.1-0.3c0-0.2-0.1-0.3-0.4-0.3h-0.4
		l-0.8,1.6h-2.9l2.6-4.9H69.4L69.4,30.7z M75.6,30.7l-1.2,2.2l2.4-2.2h2.7l-2.7,2.4l0.3,2.5h-2.8l-0.1-2.2l-1.1,2.2h-3l2.6-4.9H75.6
		L75.6,30.7z M97.9,42.7c-1.7-5.8-9.1-12.6-19.8-18.3c-9.5-5.1-20.7-6.8-27.4-6.8c0,0-0.1,0-0.1,0h-0.1c0,0-0.1,0-0.1,0
		c-6.8,0-17.9,1.8-27.4,6.8C12.1,30.1,4.7,36.9,3,42.7c-0.1,0.8-0.2,1.7-0.2,2.5l0,0l0,0c0,0.9,0.1,1.7,0.2,2.5
		c1.7,5.8,9.1,12.6,19.8,18.3c9.5,5.1,20.8,6.9,27.5,6.8h0.1c0,0,0.1,0,0.1,0c6.8,0,17.9-1.8,27.4-6.8c10.7-5.7,18.1-12.6,19.8-18.3
		c0.1-0.8,0.2-1.7,0.2-2.5v0C98.1,44.4,98,43.5,97.9,42.7L97.9,42.7z"/>
	<g>
		<path class="st1" d="M67.7,32.7l0.1-0.2c0.1-0.1,0.1-0.2,0.1-0.3c0-0.2-0.1-0.2-0.3-0.2h-0.4l-0.6,1.1h0.6
			C67.3,33.1,67.5,33,67.7,32.7L67.7,32.7z"/>
		<path class="st0" d="M43.1,51.2c1.6-0.9,3.3-1.3,4.6-1.6l0-0.1h-8.2l0.9-1.7h8l1.7-3.2h-8L43,43H51l1.8-3.3H37.2l-6.9,13.2h10.2
			C41.2,52.3,42.1,51.7,43.1,51.2L43.1,51.2z M38.4,58C38.4,58,38.4,58,38.4,58L38.4,58C38.4,58,38.4,58,38.4,58L38.4,58z
			 M35.9,39.7h-8l-4.4,8.4c-0.6,1.1-1,1.7-1.9,1.7c-0.6,0-0.8-0.3-0.8-0.8c0-0.3,0.2-0.8,0.4-1.2l1.7-3.3H16l-0.8,1.6
			c-0.7,1.3-1,2.2-1,3.4c0,2.4,2.2,3.7,7.5,3.7c3.8,0,6.4-0.8,7.9-2.4c1-1.1,1.7-2.2,2.7-4.1L35.9,39.7L35.9,39.7z M79.4,39.3
			c-4.8,0-6.8,0.8-8.2,2.2c-1,1-1.6,2.3-1.6,3.3c0,1.5,0.8,2,3.5,2.7c2.9,0.8,3.5,0.9,3.5,1.5c0,0.7-0.7,1.1-1.8,1.1
			c-1,0-1.5-0.3-1.5-0.8c0-0.4,0.1-0.7,0.3-1.1h-6.5c-0.3,0.7-0.5,1.3-0.5,1.9c0,2,1.7,3,7.5,3c4.9,0,6.9-0.8,8.2-2.2
			c1.1-1.1,1.6-2.3,1.6-3.6c0-1.5-1-2.1-3.8-2.8C77.5,44,77,43.8,77,43.4c0-0.5,0.6-1,1.8-1c0.9,0,1.5,0.3,1.5,0.8
			c0,0.4-0.1,0.7-0.3,1h6.4c0.3-0.6,0.4-1.2,0.4-1.9C86.7,40.2,84.8,39.3,79.4,39.3L79.4,39.3z M52.8,58.9c-0.1,0.1-0.1,0.1-0.2,0.2
			c-0.2,0-0.4,0-0.6,0c0-0.1-0.1-0.1-0.1-0.2c0.1-1,0.1-2,0-3.1c0-0.1,0.1-0.1,0.1-0.2c0.2,0,0.4,0,0.6,0c0.1,0.1,0.1,0.1,0.2,0.2
			C52.9,56.9,52.9,57.9,52.8,58.9L52.8,58.9z M51,59c-0.1,0.1-0.1,0.1-0.2,0.2c-0.2,0-0.4,0-0.6,0c-0.1-0.1-0.1-0.1-0.2-0.2
			c0-1,0-2.1,0-3.1c0.1-0.1,0.1-0.1,0.2-0.2c0.2,0,0.4,0,0.6,0c0.1,0.1,0.1,0.1,0.2,0.2C51,56.9,51,57.9,51,59L51,59z M49.2,58.9
			c0,0.1-0.1,0.1-0.1,0.2c-0.2,0-0.4,0-0.6,0c-0.1-0.1-0.1-0.1-0.2-0.2c-0.1-1-0.1-2,0-3c0.1-0.1,0.1-0.1,0.2-0.2c0.2,0,0.4,0,0.6,0
			c0,0.1,0.1,0.1,0.1,0.2C49.1,56.9,49.1,57.9,49.2,58.9L49.2,58.9z M54.4,55.8c0.1,0.1,0.1,0.1,0.2,0.2c0.1,0.3,0.1,0.6,0.1,0.9
			c0.6,0,1.2,0,1.7,0c1.9,0.1,3.8,0.1,5.7,0.3l0.3-0.4c0,0,0-0.1,0-0.1c-0.4-1.5-2.2-3.2-5.1-4.7c-2.6-1.4-5.4-1.7-6.9-1.7
			c0,0,0,0,0,0c0,0,0,0,0,0c0,0,0,0,0,0c-1.5,0-4.3,0.4-6.9,1.7c-2.8,1.5-4.6,3.3-5,4.7c0,0,0,0.1,0,0.1l0.3,0.4
			c1.9-0.1,3.8-0.2,5.6-0.3c0.7,0,1.3,0,2,0c0-0.3,0.1-0.6,0.1-0.9c0.1-0.1,0.1-0.1,0.2-0.2c0.2,0,0.4,0,0.6,0
			c0,0.1,0.1,0.1,0.1,0.2c-0.2,1-0.2,2,0,3c0,0.1-0.1,0.1-0.1,0.2c-0.2,0-0.4,0-0.6,0c-0.1-0.1-0.1-0.1-0.2-0.2
			c-0.1-0.3-0.1-0.6-0.1-0.9c-0.7,0-1.3,0-2,0c-1.9,0-3.8-0.1-5.6-0.3L38.4,58c0.4,1.5,2.2,3.2,5,4.7c2.6,1.4,5.5,1.7,6.9,1.7l0,0
			c0,0,0,0,0,0c0,0,0,0,0,0c0,0,0,0,0,0c1.5,0,4.3-0.4,6.9-1.7c2.8-1.5,4.6-3.3,5.1-4.7v0v0l-0.3-0.4c-1.9,0.1-3.8,0.2-5.7,0.3
			c-0.6,0-1.2,0-1.7,0c0,0.3-0.1,0.6-0.1,0.9c-0.1,0.1-0.1,0.1-0.2,0.2c-0.2,0-0.4,0-0.6,0c0-0.1-0.1-0.1-0.1-0.2c0.2-1,0.2-2,0-3
			c0-0.1,0.1-0.1,0.1-0.2C54,55.8,54.2,55.8,54.4,55.8L54.4,55.8z M98.1,45.2c0,0.9-0.1,1.7-0.2,2.5c-1.7,5.8-9.1,12.6-19.8,18.3
			c-9.5,5.1-20.7,6.8-27.4,6.8c0,0-0.1,0-0.1,0h-0.1c-6.7,0-18-1.8-27.5-6.8C12.1,60.4,4.7,53.5,3,47.8c-0.1-0.8-0.2-1.7-0.2-2.5
			l0,0l0,0c0-0.9,0.1-1.7,0.2-2.5c1.7-5.8,9.1-12.6,19.8-18.3c9.5-5.1,20.7-6.8,27.4-6.8c0,0,0.1,0,0.1,0h0.1c0,0,0.1,0,0.1,0
			c6.8,0,17.9,1.8,27.4,6.8c10.7,5.7,18.1,12.6,19.8,18.3C98,43.5,98.1,44.4,98.1,45.2L98.1,45.2L98.1,45.2z M100.5,42.1l0-0.1
			c-1.9-6.6-9.6-13.9-21.2-20c-9.9-5.3-21.6-7.2-28.7-7.2c0,0-0.1,0-0.1,0h-0.1c0,0-0.1,0-0.1,0c-7.1,0-18.8,1.9-28.7,7.2
			C10,28.1,2.3,35.4,0.4,42l0,0.1c-0.2,1-0.3,2.1-0.3,3.1c0,1.1,0.1,2.1,0.3,3.1l0,0.1c1.9,6.6,9.6,13.9,21.2,20
			c9.9,5.3,21.6,7.2,28.7,7.2c0,0,0.1,0,0.1,0h0.1c0,0,0.1,0,0.1,0c7.1,0,18.8-1.9,28.7-7.2c11.6-6.2,19.3-13.5,21.2-20l0-0.1
			c0.2-1,0.3-2.1,0.3-3.1C100.8,44.2,100.7,43.1,100.5,42.1L100.5,42.1z M25,33.3l0.5,2.3H28l2.6-4.9h-2.3l-1.1,2.1l-0.5-2.1h-2.6
			l-2.6,4.9h2.3L25,33.3L25,33.3z M70.7,39.7H54.1l-1.8,3.4h4.4l-3.5,6.6c1.3,0.2,2.9,0.7,4.5,1.5c0.8,0.4,1.6,0.9,2.2,1.4l5-9.5h4
			L70.7,39.7L70.7,39.7z M73.1,35.6l1.1-2.2l0.1,2.2h2.8l-0.3-2.5l2.7-2.4h-2.7l-2.4,2.2l1.2-2.2h-3l-2.6,4.9H73.1L73.1,35.6z
			 M34.9,35.6l0.6-1.2h-3l0.3-0.6h2.7l0.6-1.2h-2.7l0.3-0.6h2.9l0.6-1.2h-5.7l-2.6,4.9H34.9L34.9,35.6z M52.5,35.6l0.8-1.5l3.8-3.4
			h-2.7L53,32.2l0-1.5h-2.9l0.2,3.3l-0.8,1.6H52.5L52.5,35.6z M58.6,33.7l0.7-1.2c0.1-0.2,0.2-0.4,0.3-0.5c0.1-0.1,0.3-0.1,0.4-0.1
			c0.3,0,0.4,0.1,0.4,0.3c0,0.1,0,0.3-0.1,0.5l-0.7,1.2c-0.1,0.2-0.2,0.4-0.3,0.5c-0.1,0.1-0.3,0.2-0.5,0.2c-0.3,0-0.4-0.1-0.4-0.3
			C58.5,34,58.5,33.9,58.6,33.7L58.6,33.7z M56,33.1c-0.2,0.5-0.3,0.9-0.3,1.2c0,0.5,0.2,0.8,0.7,1c0.5,0.2,1.3,0.4,2.4,0.4
			c1.5,0,2.6-0.3,3.2-0.9c0.3-0.3,0.7-0.9,1-1.6c0.2-0.5,0.3-0.9,0.3-1.2c0-0.5-0.2-0.8-0.7-1c-0.5-0.2-1.3-0.4-2.4-0.4
			c-1.5,0-2.6,0.3-3.2,0.9C56.7,31.9,56.3,32.4,56,33.1L56,33.1z M39.9,35.6l1.6-1.9L41,35.6h2.9l4.3-4.9h-2.6L43.8,33l0.6-2.3h-2.7
			L40.1,33l0.6-2.3h-2.8L37,35.6H39.9L39.9,35.6z M67.2,32h0.4c0.2,0,0.3,0.1,0.3,0.2c0,0.1,0,0.2-0.1,0.3l-0.1,0.2
			c-0.1,0.3-0.3,0.4-0.6,0.4h-0.6L67.2,32L67.2,32z M65.3,35.6l0.8-1.6h0.4c0.3,0,0.4,0.1,0.4,0.3c0,0.1,0,0.2-0.1,0.3l-0.5,0.9h2.9
			l0.4-0.7c0.1-0.2,0.2-0.4,0.2-0.6c0-0.3-0.2-0.5-0.7-0.7c0.3-0.1,0.6-0.1,0.7-0.2c0.2-0.1,0.4-0.2,0.6-0.4
			c0.3-0.3,0.5-0.7,0.5-1.2c0-0.3-0.1-0.5-0.2-0.7c-0.2-0.2-0.6-0.3-1.2-0.3H65l-2.6,4.9H65.3L65.3,35.6z"/>
	</g>
</g>
</svg>
